<?xml version="1.0" encoding="UTF-8"?>
<!--Generator: Apple Native CoreSVG 341-->
<!DOCTYPE svg
PUBLIC "-//W3C//DTD SVG 1.1//EN"
       "http://www.w3.org/Graphics/SVG/1.1/DTD/svg11.dtd">
<svg version="1.1" xmlns="http://www.w3.org/2000/svg" xmlns:xlink="http://www.w3.org/1999/xlink" viewBox="0 0 24.2578 23.918">
 <g>
  <rect height="23.918" opacity="0" width="24.2578" x="0" y="0"/>
  <path d="M11.9531 23.9062C18.5508 23.9062 23.9062 18.5391 23.9062 11.9531C23.9062 5.35547 18.5508 0 11.9531 0C5.36719 0 0 5.35547 0 11.9531C0 18.5391 5.36719 23.9062 11.9531 23.9062Z" fill="white" fill-opacity="0.2125"/>
  <path d="M11.9648 5.85938C11.4375 5.85938 11.0039 6.28125 11.0039 6.79688L11.0039 13.5703L11.0859 16.1016C11.1094 16.6523 11.5312 16.9453 11.9648 16.9453C12.3984 16.9453 12.832 16.6523 12.8438 16.1016L12.9375 13.5703L12.9375 6.79688C12.9375 6.28125 12.4922 5.85938 11.9648 5.85938ZM11.9648 18.0469C12.2109 18.0469 12.4219 17.9766 12.668 17.7305L16.6406 13.8867C16.8398 13.7109 16.9336 13.5 16.9336 13.2422C16.9336 12.75 16.5586 12.3984 16.0547 12.3984C15.8203 12.3984 15.5625 12.4922 15.3984 12.6914L13.5586 14.6367L11.9648 16.3359L11.9648 16.3359L10.3711 14.6367L8.53125 12.6914C8.36719 12.4922 8.09766 12.3984 7.86328 12.3984C7.35938 12.3984 6.99609 12.75 6.99609 13.2422C6.99609 13.5 7.08984 13.7109 7.27734 13.8867L11.2617 17.7305C11.5078 17.9766 11.7188 18.0469 11.9648 18.0469Z" fill="white" fill-opacity="0.85"/>
 </g>
</svg>
